# xmcd
#
# Track frame offsets:
#	150
#	22745
#	56119
#	141688
#	171302
#	187971
#
# Disc length: 2996 seconds
#
# Revision: 0
# Processed by: cddbd v1.5.2PL0 Copyright (c) Steve Scherf et al.
# Submitted via: audiograbber 1.83.01
#
DISCID=520bb206
DTITLE=Klaus Schulze and Pete Namlook [featuring Bill Laswell] - The Dark Side Of
DTITLE=The Moog [Boxset 2 - Vol. 5-8 2016] [CD 3) - Vol. 7
DYEAR=1998
DGENRE=Electronic
TTITLE0=Obscured by Klaus Part I
TTITLE1=Obscured by Klaus Part II
TTITLE2=Obscured by Klaus Part III
TTITLE3=Obscured by Klaus Part IV
TTITLE4=Obscured by Klaus Part V
TTITLE5=Obscured by Klaus Part VI
EXTD=
EXTT0=
EXTT1=
EXTT2=
EXTT3=
EXTT4=
EXTT5=
PLAYORDER=
